<svg width="13" height="12" viewBox="0 0 13 12" fill="none" xmlns="http://www.w3.org/2000/svg">
<path d="M7.26475 4.17593C6.97853 4.37997 6.62828 4.5 6.25 4.5C5.2835 4.5 4.5 3.7165 4.5 2.75C4.5 1.7835 5.2835 1 6.25 1C6.87649 1 7.4261 1.32921 7.73525 1.82407M3.5 10.0436H4.80515C4.97531 10.0436 5.14444 10.0638 5.30941 10.1043L6.68845 10.4394C6.98767 10.5123 7.29939 10.5194 7.60174 10.4607L9.12649 10.1641C9.52927 10.0856 9.89979 9.89272 10.1902 9.61025L11.2689 8.56086C11.577 8.26168 11.577 7.77622 11.2689 7.47653C10.9916 7.20672 10.5524 7.17634 10.2386 7.40516L8.9813 8.32243C8.80124 8.45404 8.58216 8.52492 8.35683 8.52492H7.14275L7.91553 8.52488C8.3511 8.52488 8.70393 8.18166 8.70393 7.75796V7.60457C8.70393 7.25275 8.45778 6.94598 8.10704 6.86094L6.9143 6.57087C6.72019 6.52379 6.5214 6.5 6.32157 6.5C5.83917 6.5 4.96595 6.89941 4.96595 6.89941L3.5 7.51244M10.5 3.25C10.5 4.2165 9.7165 5 8.75 5C7.7835 5 7 4.2165 7 3.25C7 2.2835 7.7835 1.5 8.75 1.5C9.7165 1.5 10.5 2.2835 10.5 3.25ZM1.5 7.3L1.5 10.2C1.5 10.48 1.5 10.62 1.5545 10.727C1.60243 10.8211 1.67892 10.8976 1.773 10.9455C1.87996 11 2.01997 11 2.3 11H2.7C2.98003 11 3.12004 11 3.227 10.9455C3.32108 10.8976 3.39757 10.8211 3.4455 10.727C3.5 10.62 3.5 10.48 3.5 10.2V7.3C3.5 7.01997 3.5 6.87996 3.4455 6.77301C3.39757 6.67892 3.32108 6.60243 3.227 6.5545C3.12004 6.5 2.98003 6.5 2.7 6.5L2.3 6.5C2.01997 6.5 1.87996 6.5 1.773 6.5545C1.67892 6.60243 1.60243 6.67892 1.5545 6.77301C1.5 6.87996 1.5 7.01997 1.5 7.3Z" stroke="#026AA2" stroke-width="1.5" stroke-linecap="round" stroke-linejoin="round"/>
</svg>
