<svg width="88" height="22" viewBox="0 0 88 22" fill="none" xmlns="http://www.w3.org/2000/svg">
<g style="mix-blend-mode:multiply">
<rect width="88" height="22" rx="11" fill="#ECFDF3"/>
<path d="M16 8L10.5 13.5L8 11" stroke="#12B76A" stroke-width="1.5" stroke-linecap="round" stroke-linejoin="round"/>
<path d="M23.8034 15H22.4057L25.5463 6.27273H27.0676L30.2083 15H28.8105L26.3432 7.85795H26.275L23.8034 15ZM24.0378 11.5824H28.5719V12.6903H24.0378V11.5824ZM33.7111 15.1278C33.1827 15.1278 32.7111 14.9929 32.2963 14.723C31.8844 14.4503 31.5605 14.0625 31.3248 13.5597C31.0918 13.054 30.9753 12.4474 30.9753 11.7401C30.9753 11.0327 31.0932 10.4276 31.329 9.92472C31.5676 9.42187 31.8944 9.03693 32.3091 8.76989C32.7239 8.50284 33.1941 8.36932 33.7196 8.36932C34.1259 8.36932 34.4526 8.4375 34.6998 8.57386C34.9498 8.70739 35.1429 8.86364 35.2793 9.04261C35.4185 9.22159 35.5265 9.37926 35.6032 9.51562H35.6799V6.27273H36.954V15H35.7097V13.9815H35.6032C35.5265 14.1207 35.4157 14.2798 35.2708 14.4588C35.1287 14.6378 34.9327 14.794 34.6827 14.9276C34.4327 15.0611 34.1088 15.1278 33.7111 15.1278ZM33.9924 14.0412C34.3588 14.0412 34.6685 13.9446 34.9213 13.7514C35.177 13.5554 35.3702 13.2841 35.5009 12.9375C35.6344 12.5909 35.7012 12.1875 35.7012 11.7273C35.7012 11.2727 35.6358 10.875 35.5051 10.5341C35.3745 10.1932 35.1827 9.92756 34.9299 9.73722C34.677 9.54687 34.3645 9.4517 33.9924 9.4517C33.6088 9.4517 33.2892 9.55114 33.0336 9.75C32.7779 9.94886 32.5847 10.2202 32.454 10.5639C32.3262 10.9077 32.2623 11.2955 32.2623 11.7273C32.2623 12.1648 32.3276 12.5582 32.4583 12.9077C32.589 13.2571 32.7821 13.5341 33.0378 13.7386C33.2963 13.9403 33.6145 14.0412 33.9924 14.0412ZM44.372 8.45455L41.9984 15H40.6348L38.2569 8.45455H39.6248L41.2825 13.4915H41.3507L43.0041 8.45455H44.372ZM47.2868 15.1449C46.872 15.1449 46.497 15.0682 46.1618 14.9148C45.8265 14.7585 45.5609 14.5327 45.3649 14.2372C45.1717 13.9418 45.0751 13.5795 45.0751 13.1506C45.0751 12.7812 45.1461 12.4773 45.2882 12.2386C45.4302 12 45.622 11.8111 45.8635 11.6719C46.1049 11.5327 46.3748 11.4276 46.6731 11.3565C46.9714 11.2855 47.2754 11.2315 47.585 11.1946C47.9771 11.1491 48.2953 11.1122 48.5396 11.0838C48.7839 11.0526 48.9615 11.0028 49.0723 10.9347C49.1831 10.8665 49.2385 10.7557 49.2385 10.6023V10.5724C49.2385 10.2003 49.1333 9.91193 48.9231 9.70739C48.7157 9.50284 48.4061 9.40057 47.9941 9.40057C47.5652 9.40057 47.2271 9.49574 46.9799 9.68608C46.7356 9.87358 46.5666 10.0824 46.4728 10.3125L45.2754 10.0398C45.4174 9.64205 45.6248 9.32102 45.8975 9.0767C46.1731 8.82955 46.4899 8.65057 46.8478 8.53977C47.2058 8.42614 47.5822 8.36932 47.9771 8.36932C48.2385 8.36932 48.5154 8.40057 48.8081 8.46307C49.1035 8.52273 49.3791 8.63352 49.6348 8.79545C49.8933 8.95739 50.1049 9.18892 50.2697 9.49006C50.4345 9.78835 50.5169 10.1761 50.5169 10.6534V15H49.2725V14.1051H49.2214C49.139 14.2699 49.0154 14.4318 48.8507 14.5909C48.6859 14.75 48.4743 14.8821 48.2157 14.9872C47.9572 15.0923 47.6475 15.1449 47.2868 15.1449ZM47.5637 14.1222C47.916 14.1222 48.2172 14.0526 48.4672 13.9134C48.72 13.7741 48.9118 13.5923 49.0424 13.3679C49.176 13.1406 49.2427 12.8977 49.2427 12.6392V11.7955C49.1973 11.8409 49.1092 11.8835 48.9785 11.9233C48.8507 11.9602 48.7044 11.9929 48.5396 12.0213C48.3748 12.0469 48.2143 12.071 48.0581 12.0938C47.9018 12.1136 47.7711 12.1307 47.666 12.1449C47.4189 12.1761 47.193 12.2287 46.9885 12.3026C46.7868 12.3764 46.6248 12.483 46.5027 12.6222C46.3833 12.7585 46.3237 12.9403 46.3237 13.1676C46.3237 13.483 46.4402 13.7216 46.6731 13.8835C46.9061 14.0426 47.2029 14.1222 47.5637 14.1222ZM53.4881 11.1136V15H52.214V8.45455H53.437V9.51989H53.5179C53.6685 9.1733 53.9043 8.89489 54.2253 8.68466C54.5492 8.47443 54.9569 8.36932 55.4483 8.36932C55.8944 8.36932 56.285 8.46307 56.6202 8.65057C56.9554 8.83523 57.2154 9.1108 57.4 9.47727C57.5847 9.84375 57.677 10.2969 57.677 10.8366V15H56.4029V10.9901C56.4029 10.5156 56.2793 10.1449 56.0321 9.87784C55.785 9.60795 55.4455 9.47301 55.0137 9.47301C54.7182 9.47301 54.4554 9.53693 54.2253 9.66477C53.998 9.79261 53.8176 9.98011 53.6841 10.2273C53.5534 10.4716 53.4881 10.767 53.4881 11.1136ZM62.1429 15.1321C61.5094 15.1321 60.964 14.9886 60.5066 14.7017C60.052 14.4119 59.7026 14.0128 59.4583 13.5043C59.214 12.9957 59.0918 12.4134 59.0918 11.7571C59.0918 11.0923 59.2168 10.5057 59.4668 9.99716C59.7168 9.4858 60.0691 9.08665 60.5236 8.79972C60.9782 8.51278 61.5137 8.36932 62.1301 8.36932C62.6273 8.36932 63.0705 8.46165 63.4597 8.64631C63.8489 8.82812 64.1628 9.08381 64.4015 9.41335C64.6429 9.7429 64.7864 10.1278 64.8319 10.5682H63.5918C63.5236 10.2614 63.3674 9.99716 63.123 9.77557C62.8816 9.55398 62.5577 9.44318 62.1515 9.44318C61.7963 9.44318 61.4853 9.53693 61.2182 9.72443C60.954 9.90909 60.748 10.1733 60.6003 10.517C60.4526 10.858 60.3787 11.2614 60.3787 11.7273C60.3787 12.2045 60.4512 12.6165 60.5961 12.9631C60.7409 13.3097 60.9455 13.5781 61.2097 13.7685C61.4767 13.9588 61.7907 14.054 62.1515 14.054C62.3929 14.054 62.6117 14.0099 62.8077 13.9219C63.0066 13.831 63.1728 13.7017 63.3063 13.5341C63.4426 13.3665 63.5378 13.1648 63.5918 12.929H64.8319C64.7864 13.3523 64.6486 13.7301 64.4185 14.0625C64.1884 14.3949 63.8801 14.6562 63.4938 14.8466C63.1103 15.0369 62.66 15.1321 62.1429 15.1321ZM69.0154 15.1321C68.3706 15.1321 67.8152 14.9943 67.3493 14.7188C66.8862 14.4403 66.5282 14.0497 66.2754 13.5469C66.0254 13.0412 65.9004 12.4489 65.9004 11.7699C65.9004 11.0994 66.0254 10.5085 66.2754 9.99716C66.5282 9.4858 66.8805 9.08665 67.3322 8.79972C67.7868 8.51278 68.318 8.36932 68.926 8.36932C69.2953 8.36932 69.6532 8.4304 69.9998 8.55256C70.3464 8.67472 70.6575 8.86648 70.9331 9.12784C71.2086 9.3892 71.426 9.72869 71.5851 10.1463C71.7441 10.5611 71.8237 11.0653 71.8237 11.6591V12.1108H66.6206V11.1562H70.5751C70.5751 10.821 70.5069 10.5241 70.3706 10.2656C70.2342 10.0043 70.0424 9.7983 69.7953 9.64773C69.551 9.49716 69.264 9.42188 68.9345 9.42188C68.5765 9.42188 68.264 9.50994 67.997 9.68608C67.7328 9.85937 67.5282 10.0866 67.3833 10.3679C67.2413 10.6463 67.1703 10.9489 67.1703 11.2756V12.0213C67.1703 12.4588 67.247 12.831 67.4004 13.1378C67.5566 13.4446 67.774 13.679 68.0524 13.8409C68.3308 14 68.6561 14.0795 69.0282 14.0795C69.2697 14.0795 69.4899 14.0455 69.6887 13.9773C69.8876 13.9062 70.0595 13.8011 70.2044 13.6619C70.3493 13.5227 70.46 13.3509 70.5368 13.1463L71.7427 13.3636C71.6461 13.7187 71.4728 14.0298 71.2228 14.2969C70.9757 14.5611 70.6646 14.767 70.2896 14.9148C69.9174 15.0597 69.4927 15.1321 69.0154 15.1321ZM75.6877 15.1278C75.1593 15.1278 74.6877 14.9929 74.2729 14.723C73.861 14.4503 73.5371 14.0625 73.3013 13.5597C73.0684 13.054 72.9519 12.4474 72.9519 11.7401C72.9519 11.0327 73.0698 10.4276 73.3056 9.92472C73.5442 9.42187 73.8709 9.03693 74.2857 8.76989C74.7005 8.50284 75.1706 8.36932 75.6962 8.36932C76.1025 8.36932 76.4292 8.4375 76.6763 8.57386C76.9263 8.70739 77.1195 8.86364 77.2559 9.04261C77.3951 9.22159 77.503 9.37926 77.5797 9.51562H77.6564V6.27273H78.9306V15H77.6863V13.9815H77.5797C77.503 14.1207 77.3922 14.2798 77.2473 14.4588C77.1053 14.6378 76.9093 14.794 76.6593 14.9276C76.4093 15.0611 76.0854 15.1278 75.6877 15.1278ZM75.9689 14.0412C76.3354 14.0412 76.6451 13.9446 76.8979 13.7514C77.1536 13.5554 77.3468 13.2841 77.4775 12.9375C77.611 12.5909 77.6777 12.1875 77.6777 11.7273C77.6777 11.2727 77.6124 10.875 77.4817 10.5341C77.351 10.1932 77.1593 9.92756 76.9064 9.73722C76.6536 9.54687 76.3411 9.4517 75.9689 9.4517C75.5854 9.4517 75.2658 9.55114 75.0101 9.75C74.7544 9.94886 74.5613 10.2202 74.4306 10.5639C74.3027 10.9077 74.2388 11.2955 74.2388 11.7273C74.2388 12.1648 74.3042 12.5582 74.4348 12.9077C74.5655 13.2571 74.7587 13.5341 75.0144 13.7386C75.2729 13.9403 75.5911 14.0412 75.9689 14.0412Z" fill="#027A48"/>
</g>
</svg>
