<svg width="61" height="22" viewBox="0 0 61 22" fill="none" xmlns="http://www.w3.org/2000/svg">
<g style="mix-blend-mode:multiply">
<rect width="61" height="22" rx="11" fill="#F2F4F7"/>
<path d="M12 7.5V14.5M8.5 11H15.5" stroke="#475467" stroke-width="1.5" stroke-linecap="round" stroke-linejoin="round"/>
<path d="M23.0018 15V6.27273H26.1978C26.8171 6.27273 27.3299 6.375 27.7362 6.57955C28.1424 6.78125 28.4464 7.0554 28.6481 7.40199C28.8498 7.74574 28.9506 8.13352 28.9506 8.56534C28.9506 8.92898 28.8839 9.2358 28.7504 9.4858C28.6168 9.73295 28.4379 9.93182 28.2134 10.0824C27.9918 10.2301 27.7475 10.3381 27.4805 10.4062V10.4915C27.7702 10.5057 28.0529 10.5994 28.3285 10.7727C28.6069 10.9432 28.837 11.1861 29.0188 11.5014C29.2006 11.8168 29.2915 12.2003 29.2915 12.652C29.2915 13.098 29.1864 13.4986 28.9762 13.8537C28.7688 14.206 28.4478 14.4858 28.0131 14.6932C27.5785 14.8977 27.0231 15 26.3469 15H23.0018ZM24.3185 13.8707H26.2191C26.8498 13.8707 27.3015 13.7486 27.5742 13.5043C27.8469 13.2599 27.9833 12.9545 27.9833 12.5881C27.9833 12.3125 27.9137 12.0597 27.7745 11.8295C27.6353 11.5994 27.4364 11.4162 27.1779 11.2798C26.9222 11.1435 26.6183 11.0753 26.266 11.0753H24.3185V13.8707ZM24.3185 10.0483H26.0827C26.3782 10.0483 26.6438 9.99148 26.8796 9.87784C27.1183 9.7642 27.3072 9.60511 27.4464 9.40057C27.5884 9.19318 27.6594 8.94886 27.6594 8.66761C27.6594 8.30682 27.533 8.00426 27.2802 7.75994C27.0273 7.51562 26.6396 7.39347 26.1168 7.39347H24.3185V10.0483ZM32.6559 15.1449C32.2411 15.1449 31.8661 15.0682 31.5309 14.9148C31.1957 14.7585 30.93 14.5327 30.734 14.2372C30.5408 13.9418 30.4442 13.5795 30.4442 13.1506C30.4442 12.7812 30.5153 12.4773 30.6573 12.2386C30.7994 12 30.9911 11.8111 31.2326 11.6719C31.4741 11.5327 31.744 11.4276 32.0423 11.3565C32.3406 11.2855 32.6445 11.2315 32.9542 11.1946C33.3462 11.1491 33.6644 11.1122 33.9087 11.0838C34.1531 11.0526 34.3306 11.0028 34.4414 10.9347C34.5522 10.8665 34.6076 10.7557 34.6076 10.6023V10.5724C34.6076 10.2003 34.5025 9.91193 34.2923 9.70739C34.0849 9.50284 33.7752 9.40057 33.3633 9.40057C32.9343 9.40057 32.5962 9.49574 32.3491 9.68608C32.1048 9.87358 31.9357 10.0824 31.842 10.3125L30.6445 10.0398C30.7866 9.64205 30.994 9.32102 31.2667 9.0767C31.5423 8.82955 31.859 8.65057 32.217 8.53977C32.5749 8.42614 32.9513 8.36932 33.3462 8.36932C33.6076 8.36932 33.8846 8.40057 34.1772 8.46307C34.4727 8.52273 34.7482 8.63352 35.0039 8.79545C35.2624 8.95739 35.4741 9.18892 35.6388 9.49006C35.8036 9.78835 35.886 10.1761 35.886 10.6534V15H34.6417V14.1051H34.5906C34.5082 14.2699 34.3846 14.4318 34.2198 14.5909C34.055 14.75 33.8434 14.8821 33.5849 14.9872C33.3263 15.0923 33.0167 15.1449 32.6559 15.1449ZM32.9329 14.1222C33.2852 14.1222 33.5863 14.0526 33.8363 13.9134C34.0891 13.7741 34.2809 13.5923 34.4116 13.3679C34.5451 13.1406 34.6119 12.8977 34.6119 12.6392V11.7955C34.5664 11.8409 34.4783 11.8835 34.3477 11.9233C34.2198 11.9602 34.0735 11.9929 33.9087 12.0213C33.744 12.0469 33.5835 12.071 33.4272 12.0938C33.271 12.1136 33.1403 12.1307 33.0352 12.1449C32.788 12.1761 32.5621 12.2287 32.3576 12.3026C32.1559 12.3764 31.994 12.483 31.8718 12.6222C31.7525 12.7585 31.6928 12.9403 31.6928 13.1676C31.6928 13.483 31.8093 13.7216 32.0423 13.8835C32.2752 14.0426 32.5721 14.1222 32.9329 14.1222ZM42.4879 10.0526L41.3331 10.2571C41.2848 10.1094 41.2081 9.96875 41.103 9.83523C41.0007 9.7017 40.8615 9.59233 40.6854 9.5071C40.5092 9.42187 40.2891 9.37926 40.0249 9.37926C39.6641 9.37926 39.3629 9.46023 39.1214 9.62216C38.88 9.78125 38.7592 9.98722 38.7592 10.2401C38.7592 10.4588 38.8402 10.6349 39.0021 10.7685C39.1641 10.902 39.4254 11.0114 39.7862 11.0966L40.826 11.3352C41.4283 11.4744 41.8771 11.6889 42.1726 11.9787C42.468 12.2685 42.6158 12.6449 42.6158 13.108C42.6158 13.5 42.5021 13.8494 42.2749 14.1562C42.0504 14.4602 41.7365 14.6989 41.3331 14.8722C40.9325 15.0455 40.468 15.1321 39.9396 15.1321C39.2067 15.1321 38.6087 14.9759 38.1456 14.6634C37.6825 14.348 37.3984 13.9006 37.2933 13.321L38.5249 13.1335C38.6016 13.4545 38.7592 13.6974 38.9979 13.8622C39.2365 14.0241 39.5476 14.1051 39.9311 14.1051C40.3487 14.1051 40.6825 14.0185 40.9325 13.8452C41.1825 13.669 41.3075 13.4545 41.3075 13.2017C41.3075 12.9972 41.2308 12.8253 41.0774 12.6861C40.9268 12.5469 40.6953 12.4418 40.3828 12.3707L39.2749 12.1278C38.6641 11.9886 38.2124 11.767 37.9197 11.4631C37.63 11.1591 37.4851 10.7741 37.4851 10.3082C37.4851 9.92187 37.593 9.58381 37.8089 9.29403C38.0249 9.00426 38.3232 8.77841 38.7038 8.61648C39.0845 8.4517 39.5206 8.36932 40.0121 8.36932C40.7195 8.36932 41.2763 8.52273 41.6825 8.82955C42.0888 9.13352 42.3572 9.54119 42.4879 10.0526ZM44.0167 15V8.45455H45.2908V15H44.0167ZM44.6602 7.4446C44.4386 7.4446 44.2482 7.37074 44.0891 7.22301C43.9329 7.07244 43.8548 6.89347 43.8548 6.68608C43.8548 6.47585 43.9329 6.29687 44.0891 6.14915C44.2482 5.99858 44.4386 5.9233 44.6602 5.9233C44.8817 5.9233 45.0707 5.99858 45.2269 6.14915C45.386 6.29687 45.4656 6.47585 45.4656 6.68608C45.4656 6.89347 45.386 7.07244 45.2269 7.22301C45.0707 7.37074 44.8817 7.4446 44.6602 7.4446ZM49.7621 15.1321C49.1286 15.1321 48.5831 14.9886 48.1257 14.7017C47.6712 14.4119 47.3217 14.0128 47.0774 13.5043C46.8331 12.9957 46.7109 12.4134 46.7109 11.7571C46.7109 11.0923 46.8359 10.5057 47.0859 9.99716C47.3359 9.4858 47.6882 9.08665 48.1428 8.79972C48.5973 8.51278 49.1328 8.36932 49.7493 8.36932C50.2464 8.36932 50.6896 8.46165 51.0788 8.64631C51.468 8.82812 51.782 9.08381 52.0206 9.41335C52.2621 9.7429 52.4055 10.1278 52.451 10.5682H51.2109C51.1428 10.2614 50.9865 9.99716 50.7422 9.77557C50.5007 9.55398 50.1768 9.44318 49.7706 9.44318C49.4155 9.44318 49.1044 9.53693 48.8374 9.72443C48.5732 9.90909 48.3672 10.1733 48.2195 10.517C48.0717 10.858 47.9979 11.2614 47.9979 11.7273C47.9979 12.2045 48.0703 12.6165 48.2152 12.9631C48.3601 13.3097 48.5646 13.5781 48.8288 13.7685C49.0959 13.9588 49.4098 14.054 49.7706 14.054C50.0121 14.054 50.2308 14.0099 50.4268 13.9219C50.6257 13.831 50.7919 13.7017 50.9254 13.5341C51.0618 13.3665 51.157 13.1648 51.2109 12.929H52.451C52.4055 13.3523 52.2678 13.7301 52.0376 14.0625C51.8075 14.3949 51.4993 14.6562 51.1129 14.8466C50.7294 15.0369 50.2791 15.1321 49.7621 15.1321Z" fill="#344054"/>
</g>
</svg>
