<svg width="20" height="16" viewBox="0 0 20 16" fill="none" xmlns="http://www.w3.org/2000/svg">
<path d="M10.0003 14.6663H4.33366C3.40024 14.6663 2.93353 14.6663 2.57701 14.4847C2.2634 14.3249 2.00844 14.0699 1.84865 13.7563C1.66699 13.3998 1.66699 12.9331 1.66699 11.9997V3.99967C1.66699 3.06625 1.66699 2.59954 1.84865 2.24302C2.00844 1.92942 2.2634 1.67445 2.57701 1.51466C2.93353 1.33301 3.40024 1.33301 4.33366 1.33301H4.66699C6.53383 1.33301 7.46725 1.33301 8.18029 1.69632C8.8075 2.0159 9.31744 2.52583 9.63701 3.15304C10.0003 3.86608 10.0003 4.7995 10.0003 6.66634M10.0003 14.6663V6.66634M10.0003 14.6663H15.667C16.6004 14.6663 17.0671 14.6663 17.4236 14.4847C17.7372 14.3249 17.9922 14.0699 18.152 13.7563C18.3337 13.3998 18.3337 12.9331 18.3337 11.9997V3.99967C18.3337 3.06625 18.3337 2.59954 18.152 2.24302C17.9922 1.92942 17.7372 1.67445 17.4236 1.51466C17.0671 1.33301 16.6004 1.33301 15.667 1.33301H15.3337C13.4668 1.33301 12.5334 1.33301 11.8204 1.69632C11.1932 2.0159 10.6832 2.52583 10.3636 3.15304C10.0003 3.86608 10.0003 4.7995 10.0003 6.66634" stroke="#475467" stroke-width="1.66667" stroke-linecap="round" stroke-linejoin="round"/>
</svg>
