<svg width="48" height="48" viewBox="0 0 48 48" fill="none" xmlns="http://www.w3.org/2000/svg">
<path d="M35.048 7.21144C34.2063 7.66497 33.2094 7.66497 32.3678 7.21144L24.237 2.84371L16.1063 7.21144C15.2646 7.66497 14.2635 7.66497 13.4259 7.21144L0 0V38.9091C0 40.0532 0.61287 41.1031 1.58937 41.6302L12.8212 47.6609C13.6629 48.1144 14.6599 48.1144 15.5016 47.6609L24.233 42.9704L32.9643 47.6609C33.806 48.1144 34.8028 48.1144 35.6445 47.6609L46.8764 41.6302C47.8529 41.1072 48.4658 40.0572 48.4658 38.9091V0L35.0398 7.21144H35.048ZM19.5669 33.3196L14.7824 35.8898C14.4024 36.0939 13.953 36.0939 13.5771 35.8898L9.83044 33.8754C9.39326 33.6384 9.11543 33.1686 9.11543 32.6538V17.0787L18.8518 22.3085C19.2891 22.5455 19.5669 23.0152 19.5669 23.5343V33.3196ZM39.3585 32.6538C39.3585 33.1686 39.0807 33.6424 38.6435 33.8754L34.8969 35.8898C34.5168 36.0939 34.0674 36.0939 33.6915 35.8898L28.9071 33.3196V23.5343C28.9071 23.0194 29.1849 22.5455 29.622 22.3085L39.3585 17.0787V32.6538Z" fill="#0D4772"/>
</svg>
