<svg width="100" height="13" viewBox="0 0 100 13" fill="none" xmlns="http://www.w3.org/2000/svg">
<path d="M64.0171 9.56373H57.0325V0.00244141H51.6895L52.9608 2.90578V12.4671H65.8089L64.7453 10.0385C64.6171 9.7486 64.3318 9.56147 64.0171 9.56147V9.56373Z" fill="#0D4772"/>
<path d="M72.3821 9.56357V7.6874H78.86C79.1747 7.6874 79.4627 7.5002 79.5882 7.21035L80.6517 4.78178H72.3821V2.90562H80.9576C81.2723 2.90562 81.5603 2.71842 81.6858 2.42857L82.7493 0H67.0391L68.3104 2.90329V12.4646H82.7493L81.6858 10.036C81.5576 9.74617 81.2723 9.55904 80.9576 9.55904H72.3821V9.56357Z" fill="#0D4772"/>
<path d="M49.8336 0.00244141H35.5654V2.90578H40.6644V12.4671H44.734V2.90578H49.8336V0.00244141Z" fill="#0D4772"/>
<path d="M98.8175 8.50449L99.6253 7.69652C99.7734 7.54814 99.8584 7.34503 99.8584 7.135V1.68218C99.8584 1.48133 99.783 1.28731 99.6438 1.13895L98.8196 0.253355C98.6687 0.0912949 98.4589 0 98.2374 0H84.7139L85.9852 2.90329V12.4646H90.0548V8.73503H92.5131L95.4116 12.1816C95.5625 12.3619 95.786 12.4646 96.0212 12.4646H99.9997L96.8612 8.73503H98.2539C98.4637 8.73503 98.6666 8.65062 98.8148 8.50223L98.8175 8.50449ZM95.5234 5.834H90.0569V2.90562H95.5234C95.6701 2.90562 95.7887 3.02431 95.7887 3.17037V5.56699C95.7887 5.71304 95.6701 5.83174 95.5234 5.83174V5.834Z" fill="#0D4772"/>
<path d="M33.4331 2.3169L31.3519 0.235253C31.2031 0.0868932 31.0002 0.00244141 30.7903 0.00244141H21.747C21.537 0.00244141 21.3339 0.0868932 21.1855 0.235253L19.1039 2.3169C18.9555 2.46522 18.8711 2.66839 18.8711 2.87835V9.58883C18.8711 9.79886 18.9555 10.002 19.1039 10.1504L21.1855 12.232C21.3339 12.3803 21.537 12.4648 21.747 12.4648H30.7903C31.0002 12.4648 31.2031 12.3803 31.3519 12.232L33.4331 10.1504C33.5819 10.002 33.6662 9.79886 33.6662 9.58883V2.88062C33.6662 2.67065 33.5819 2.46755 33.4331 2.31916V2.3169ZM29.3318 9.56373H23.2032C23.0571 9.56373 22.9384 9.44503 22.9384 9.29898V3.17053C22.9384 3.02441 23.0571 2.90578 23.2032 2.90578H29.3318C29.4779 2.90578 29.5965 3.02441 29.5965 3.17053V9.29898C29.5965 9.44503 29.4779 9.56373 29.3318 9.56373Z" fill="#0D4772"/>
<path d="M16.3037 4.62218V2.88062C16.3037 2.67065 16.2193 2.46755 16.0709 2.31916L13.9893 0.235253C13.8409 0.0868932 13.6378 0.00244141 13.4255 0.00244141H0L1.50643 2.48579V4.7203L0.524979 6.23592L1.50643 7.75147V9.98599L0 12.4671H13.4255C13.6356 12.4671 13.8387 12.3826 13.9871 12.2342L16.0687 10.1526C16.2171 10.0042 16.3015 9.80112 16.3015 9.59116V7.82903C16.3015 7.61906 16.2171 7.41596 16.0687 7.26757L15.0278 6.22673L16.0687 5.18597C16.2171 5.03758 16.3015 4.83447 16.3015 4.62444L16.3037 4.62218ZM12.2341 9.29898C12.2341 9.44503 12.1154 9.56373 11.9693 9.56373H5.57611V7.67612H11.9693C12.1154 7.67612 12.2341 7.79481 12.2341 7.94087V9.29898ZM12.2341 4.50808C12.2341 4.65413 12.1154 4.77283 11.9693 4.77283H5.57611V2.90578H11.9693C12.1154 2.90578 12.2341 3.02441 12.2341 3.17053V4.50808Z" fill="#0D4772"/>
</svg>
