<svg width="20" height="20" viewBox="0 0 20 20" fill="none" xmlns="http://www.w3.org/2000/svg">
<g clip-path="url(#clip0_1002_15215)">
<path d="M10 20C15.5228 20 20 15.5228 20 10C20 4.47715 15.5228 0 10 0C4.47715 0 0 4.47715 0 10C0 15.5228 4.47715 20 10 20Z" fill="#F0F0F0"/>
<path d="M20.0008 10.0008C20.0008 6.03617 17.6936 2.61054 14.3486 0.993042V19.0085C17.6936 17.391 20.0008 13.9654 20.0008 10.0008Z" fill="#D80027"/>
<path d="M0.000488281 10.0003C0.000488281 13.9649 2.30771 17.3905 5.65268 19.008V0.992554C2.30771 2.61005 0.000488281 6.03568 0.000488281 10.0003Z" fill="#D80027"/>
<path d="M11.7398 11.3051L13.4789 10.4355L12.6094 10.0008V9.13118L10.8703 10.0008L11.7398 8.26161H10.8703L10.0007 6.95728L9.13113 8.26161H8.26156L9.13113 10.0008L7.39199 9.13118V10.0008L6.52246 10.4355L8.26156 11.3051L7.8268 12.1747H9.56594V13.479H10.4355V12.1747H12.1746L11.7398 11.3051Z" fill="#D80027"/>
</g>
<defs>
<clipPath id="clip0_1002_15215">
<rect width="20" height="20" fill="white"/>
</clipPath>
</defs>
</svg>
