<svg width="69" height="69" viewBox="0 0 69 69" fill="none" xmlns="http://www.w3.org/2000/svg">
<rect x="15" y="15" width="38.88" height="38.88" rx="19.44" fill="#CFF9FE"/>
<path d="M41.3253 31.2V37.842C41.3253 39.203 41.3253 39.8834 41.0605 40.4032C40.8275 40.8605 40.4558 41.2322 39.9985 41.4652C39.4787 41.73 38.7983 41.73 37.4373 41.73H31.4433C30.0824 41.73 29.4019 41.73 28.8821 41.4652C28.4249 41.2322 28.0532 40.8605 27.8202 40.4032C27.5553 39.8834 27.5553 39.203 27.5553 37.842V31.2M27.6363 27.15H41.2443C41.698 27.15 41.9248 27.15 42.0981 27.2383C42.2505 27.316 42.3744 27.4399 42.452 27.5923C42.5403 27.7656 42.5403 27.9924 42.5403 28.446V29.904C42.5403 30.3577 42.5403 30.5845 42.452 30.7578C42.3744 30.9102 42.2505 31.0341 42.0981 31.1117C41.9248 31.2 41.698 31.2 41.2443 31.2H27.6363C27.1827 31.2 26.9559 31.2 26.7826 31.1117C26.6302 31.0341 26.5063 30.9102 26.4286 30.7578C26.3403 30.5845 26.3403 30.3577 26.3403 29.904V28.446C26.3403 27.9924 26.3403 27.7656 26.4286 27.5923C26.5063 27.4399 26.6302 27.316 26.7826 27.2383C26.9559 27.15 27.1827 27.15 27.6363 27.15ZM32.4963 34.035H36.3843C36.838 34.035 37.0648 34.035 37.2381 34.1233C37.3905 34.201 37.5144 34.3249 37.592 34.4773C37.6803 34.6506 37.6803 34.8774 37.6803 35.331V35.979C37.6803 36.4327 37.6803 36.6595 37.592 36.8328C37.5144 36.9852 37.3905 37.1091 37.2381 37.1867C37.0648 37.275 36.838 37.275 36.3843 37.275H32.4963C32.0427 37.275 31.8159 37.275 31.6426 37.1867C31.4902 37.1091 31.3663 36.9852 31.2886 36.8328C31.2003 36.6595 31.2003 36.4327 31.2003 35.979V35.331C31.2003 34.8774 31.2003 34.6506 31.2886 34.4773C31.3663 34.3249 31.4902 34.201 31.6426 34.1233C31.8159 34.035 32.0427 34.035 32.4963 34.035Z" stroke="#082B44" stroke-width="2" stroke-linecap="round" stroke-linejoin="round"/>
<rect x="15" y="15" width="38.88" height="38.88" rx="19.44" stroke="#ECFDFF" stroke-width="4"/>
<path d="M38.8816 60.2273C49.2433 58.104 57.605 49.6347 59.0791 38.559C60.9409 24.5699 51.1098 11.7202 37.1206 9.85839C28.6288 8.72822 20.5568 11.9068 15.1076 17.7085" stroke="#35ACC7"/>
<g filter="url(#filter0_f_1037_91125)">
<path d="M38.8816 60.2273C49.2433 58.104 57.605 49.6347 59.0791 38.559C60.9409 24.5699 51.1098 11.7202 37.1206 9.85839C28.6288 8.72822 20.5568 11.9068 15.1076 17.7085" stroke="#35ACC7"/>
</g>
<circle cx="34.5" cy="34.5" r="29.5" stroke="white"/>
<g filter="url(#filter1_f_1037_91125)">
<circle cx="34.5" cy="34.5" r="29.5" stroke="white"/>
</g>
<defs>
<filter id="filter0_f_1037_91125" x="10.7432" y="5.13208" width="53.0625" height="59.5851" filterUnits="userSpaceOnUse" color-interpolation-filters="sRGB">
<feFlood flood-opacity="0" result="BackgroundImageFix"/>
<feBlend mode="normal" in="SourceGraphic" in2="BackgroundImageFix" result="shape"/>
<feGaussianBlur stdDeviation="2" result="effect1_foregroundBlur_1037_91125"/>
</filter>
<filter id="filter1_f_1037_91125" x="0.5" y="0.5" width="68" height="68" filterUnits="userSpaceOnUse" color-interpolation-filters="sRGB">
<feFlood flood-opacity="0" result="BackgroundImageFix"/>
<feBlend mode="normal" in="SourceGraphic" in2="BackgroundImageFix" result="shape"/>
<feGaussianBlur stdDeviation="2" result="effect1_foregroundBlur_1037_91125"/>
</filter>
</defs>
</svg>
