<svg width="36" height="40" viewBox="0 0 36 40" fill="none" xmlns="http://www.w3.org/2000/svg">
<path d="M25.5007 27.4999H18.834M10.084 27.9166L14.7084 26.138C15.0042 26.0242 15.1521 25.9673 15.2904 25.8931C15.4133 25.8271 15.5305 25.751 15.6407 25.6654C15.7648 25.5692 15.8768 25.4571 16.1009 25.233L25.5007 15.8333C26.4211 14.9128 26.4211 13.4204 25.5007 12.4999C24.5802 11.5795 23.0878 11.5795 22.1673 12.4999L12.7676 21.8997C12.5435 22.1238 12.4314 22.2358 12.3351 22.3599C12.2496 22.4701 12.1735 22.5873 12.1075 22.7102C12.0332 22.8485 11.9764 22.9964 11.8626 23.2922L10.084 27.9166ZM10.084 27.9166L11.7991 23.4574C11.9218 23.1383 11.9832 22.9787 12.0884 22.9057C12.1804 22.8418 12.2942 22.8176 12.4042 22.8386C12.5301 22.8627 12.651 22.9836 12.8927 23.2253L14.7753 25.1079C15.017 25.3496 15.1379 25.4705 15.162 25.5964C15.183 25.7064 15.1588 25.8202 15.0949 25.9122C15.0219 26.0174 14.8623 26.0788 14.5432 26.2015L10.084 27.9166Z" stroke="#475467" stroke-width="1.66667" stroke-linecap="round" stroke-linejoin="round"/>
</svg>
