<svg width="56" height="56" viewBox="0 0 56 56" fill="none" xmlns="http://www.w3.org/2000/svg">
<rect x="4" y="4" width="48" height="48" rx="24" fill="#86A3B9"/>
<path d="M38 28H34M22 28H18M28 22V18M28 38V34M36 28C36 32.4183 32.4183 36 28 36C23.5817 36 20 32.4183 20 28C20 23.5817 23.5817 20 28 20C32.4183 20 36 23.5817 36 28ZM31 28C31 29.6569 29.6569 31 28 31C26.3431 31 25 29.6569 25 28C25 26.3431 26.3431 25 28 25C29.6569 25 31 26.3431 31 28Z" stroke="#082B44" stroke-width="2" stroke-linecap="round" stroke-linejoin="round"/>
<rect x="4" y="4" width="48" height="48" rx="24" stroke="#AEC2D0" stroke-width="8"/>
</svg>
