<svg width="20" height="20" viewBox="0 0 20 20" fill="none" xmlns="http://www.w3.org/2000/svg">
<path d="M12.4993 7.50033H12.5077M7.49935 7.50033H7.50768M18.3327 10.0003C18.3327 14.6027 14.6017 18.3337 9.99935 18.3337C5.39698 18.3337 1.66602 14.6027 1.66602 10.0003C1.66602 5.39795 5.39698 1.66699 9.99935 1.66699C14.6017 1.66699 18.3327 5.39795 18.3327 10.0003ZM12.916 7.50033C12.916 7.73044 12.7295 7.91699 12.4993 7.91699C12.2692 7.91699 12.0827 7.73044 12.0827 7.50033C12.0827 7.27021 12.2692 7.08366 12.4993 7.08366C12.7295 7.08366 12.916 7.27021 12.916 7.50033ZM7.91602 7.50033C7.91602 7.73044 7.72947 7.91699 7.49935 7.91699C7.26923 7.91699 7.08268 7.73044 7.08268 7.50033C7.08268 7.27021 7.26923 7.08366 7.49935 7.08366C7.72947 7.08366 7.91602 7.27021 7.91602 7.50033ZM9.99935 14.5837C12.0831 14.5837 13.7493 13.0562 13.7493 11.667H6.24935C6.24935 13.0562 7.9156 14.5837 9.99935 14.5837Z" stroke="#475467" stroke-width="1.66667" stroke-linecap="round" stroke-linejoin="round"/>
</svg>
