<svg width="20" height="20" viewBox="0 0 20 20" fill="none" xmlns="http://www.w3.org/2000/svg">
<path d="M10.8335 11.6667L8.33345 9.16675M12.5087 2.91675V1.66675M15.7915 4.2173L16.6754 3.33341M15.7915 10.8334L16.6754 11.7173M9.17541 4.2173L8.29153 3.33341M17.0921 7.50008H18.3421M5.10959 17.3906L12.8073 9.69289C13.1373 9.36288 13.3023 9.19787 13.3642 9.0076C13.4185 8.84023 13.4185 8.65994 13.3642 8.49257C13.3023 8.30229 13.1373 8.13729 12.8073 7.80727L12.1929 7.19289C11.8629 6.86288 11.6979 6.69787 11.5076 6.63605C11.3403 6.58166 11.16 6.58166 10.9926 6.63605C10.8023 6.69787 10.6373 6.86288 10.3073 7.19289L2.60959 14.8906C2.27958 15.2206 2.11457 15.3856 2.05275 15.5759C1.99837 15.7433 1.99837 15.9236 2.05275 16.0909C2.11457 16.2812 2.27958 16.4462 2.60959 16.7762L3.22398 17.3906C3.55399 17.7206 3.719 17.8856 3.90927 17.9475C4.07664 18.0018 4.25693 18.0018 4.4243 17.9475C4.61457 17.8856 4.77958 17.7206 5.10959 17.3906Z" stroke="#082B44" stroke-width="1.66667" stroke-linecap="round" stroke-linejoin="round"/>
</svg>
