<svg width="142" height="32" viewBox="0 0 142 32" fill="none" xmlns="http://www.w3.org/2000/svg">
<g clip-path="url(#clip0_888_84708)">
<path d="M23.3653 4.80763C22.8042 5.10998 22.1396 5.10998 21.5785 4.80763L16.158 1.89581L10.7375 4.80763C10.1764 5.10998 9.50902 5.10998 8.95063 4.80763L0 0V25.9394C0 26.7021 0.40858 27.4021 1.05958 27.7535L8.5475 31.7739C9.10861 32.0763 9.77324 32.0763 10.3344 31.7739L16.1553 28.6469L21.9762 31.7739C22.5373 32.0763 23.2019 32.0763 23.763 31.7739L31.2509 27.7535C31.9019 27.4048 32.3105 26.7048 32.3105 25.9394V0L23.3599 4.80763H23.3653ZM13.0446 22.2131L9.85496 23.9265C9.60163 24.0626 9.30201 24.0626 9.05141 23.9265L6.55363 22.5836C6.26217 22.4256 6.07695 22.1124 6.07695 21.7692V11.3858L12.5679 14.8723C12.8594 15.0303 13.0446 15.3435 13.0446 15.6895V22.2131ZM26.239 21.7692C26.239 22.1124 26.0538 22.4283 25.7623 22.5836L23.2646 23.9265C23.0112 24.0626 22.7116 24.0626 22.461 23.9265L19.2714 22.2131V15.6895C19.2714 15.3463 19.4566 15.0303 19.748 14.8723L26.239 11.3858V21.7692Z" fill="#0D4772"/>
</g>
<path d="M105.017 19.5637H98.032V10.0024H92.689L93.9603 12.9058V22.4671H106.808L105.745 20.0385C105.617 19.7486 105.331 19.5615 105.017 19.5615V19.5637Z" fill="#0D4772"/>
<path d="M113.382 19.5636V17.6874H119.859C120.174 17.6874 120.462 17.5002 120.588 17.2104L121.651 14.7818H113.382V12.9056H121.957C122.272 12.9056 122.56 12.7184 122.685 12.4286L123.749 10H108.039L109.31 12.9033V22.4646H123.749L122.685 20.036C122.557 19.7462 122.272 19.559 121.957 19.559H113.382V19.5636Z" fill="#0D4772"/>
<path d="M90.8336 10.0024H76.5654V12.9058H81.6644V22.4671H85.734V12.9058H90.8336V10.0024Z" fill="#0D4772"/>
<path d="M139.818 18.5045L140.626 17.6965C140.774 17.5481 140.859 17.345 140.859 17.135V11.6822C140.859 11.4813 140.783 11.2873 140.644 11.139L139.82 10.2534C139.669 10.0913 139.459 10 139.238 10H125.714L126.986 12.9033V22.4646H131.055V18.735H133.514L136.412 22.1816C136.563 22.3619 136.786 22.4646 137.022 22.4646H141L137.862 18.735H139.254C139.464 18.735 139.667 18.6506 139.815 18.5022L139.818 18.5045ZM136.524 15.834H131.057V12.9056H136.524C136.671 12.9056 136.789 13.0243 136.789 13.1704V15.567C136.789 15.713 136.671 15.8317 136.524 15.8317V15.834Z" fill="#0D4772"/>
<path d="M74.4335 12.3169L72.3524 10.2353C72.2036 10.0869 72.0007 10.0024 71.7908 10.0024H62.7475C62.5375 10.0024 62.3344 10.0869 62.186 10.2353L60.1044 12.3169C59.956 12.4652 59.8716 12.6684 59.8716 12.8784V19.5888C59.8716 19.7989 59.956 20.002 60.1044 20.1504L62.186 22.232C62.3344 22.3803 62.5375 22.4648 62.7475 22.4648H71.7908C72.0007 22.4648 72.2036 22.3803 72.3524 22.232L74.4335 20.1504C74.5823 20.002 74.6667 19.7989 74.6667 19.5888V12.8806C74.6667 12.6707 74.5823 12.4675 74.4335 12.3192V12.3169ZM70.3323 19.5637H64.2037C64.0576 19.5637 63.9389 19.445 63.9389 19.299V13.1705C63.9389 13.0244 64.0576 12.9058 64.2037 12.9058H70.3323C70.4784 12.9058 70.597 13.0244 70.597 13.1705V19.299C70.597 19.445 70.4784 19.5637 70.3323 19.5637Z" fill="#0D4772"/>
<path d="M57.3037 14.6222V12.8806C57.3037 12.6707 57.2193 12.4675 57.0709 12.3192L54.9893 10.2353C54.8409 10.0869 54.6378 10.0024 54.4255 10.0024H41L42.5064 12.4858V14.7203L41.525 16.2359L42.5064 17.7515V19.986L41 22.4671H54.4255C54.6356 22.4671 54.8387 22.3826 54.9871 22.2342L57.0687 20.1526C57.2171 20.0042 57.3015 19.8011 57.3015 19.5912V17.829C57.3015 17.6191 57.2171 17.416 57.0687 17.2676L56.0278 16.2267L57.0687 15.186C57.2171 15.0376 57.3015 14.8345 57.3015 14.6244L57.3037 14.6222ZM53.2341 19.299C53.2341 19.445 53.1154 19.5637 52.9693 19.5637H46.5761V17.6761H52.9693C53.1154 17.6761 53.2341 17.7948 53.2341 17.9409V19.299ZM53.2341 14.5081C53.2341 14.6541 53.1154 14.7728 52.9693 14.7728H46.5761V12.9058H52.9693C53.1154 12.9058 53.2341 13.0244 53.2341 13.1705V14.5081Z" fill="#0D4772"/>
<defs>
<clipPath id="clip0_888_84708">
<rect width="32" height="32" fill="white"/>
</clipPath>
</defs>
</svg>
