<svg width="18" height="17" viewBox="0 0 18 17" fill="none" xmlns="http://www.w3.org/2000/svg">
<path d="M9 6.70821H1.5M9 2.33321L1.5 2.33321M16.5 11.2915H1.5M16.5 15.6665H1.5M15.4333 1.46655L12.2111 3.88321C11.9699 4.06415 11.8492 4.15461 11.8061 4.26552C11.7683 4.36266 11.7683 4.47043 11.8061 4.56758C11.8492 4.67848 11.9699 4.76895 12.2111 4.94988L15.4333 7.36655C15.7766 7.62403 15.9483 7.75278 16.092 7.74979C16.217 7.74719 16.3343 7.68856 16.4114 7.59009C16.5 7.47693 16.5 7.26236 16.5 6.83321V1.99988C16.5 1.57073 16.5 1.35616 16.4114 1.243C16.3343 1.14453 16.217 1.0859 16.092 1.0833C15.9483 1.08032 15.7766 1.20906 15.4333 1.46655Z" stroke="#D0D5DD" stroke-width="1.66667" stroke-linecap="round" stroke-linejoin="round"/>
</svg>
