<svg width="20" height="20" viewBox="0 0 20 20" fill="none" xmlns="http://www.w3.org/2000/svg">
<path d="M13.3327 13.3337C13.3327 13.3337 12.0827 11.667 9.99935 11.667C7.91602 11.667 6.66602 13.3337 6.66602 13.3337M14.166 7.70032C13.8368 8.10449 13.3868 8.33366 12.916 8.33366C12.4452 8.33366 12.0077 8.10449 11.666 7.70032M8.33268 7.70032C8.00352 8.10449 7.55352 8.33366 7.08268 8.33366C6.61185 8.33366 6.17435 8.10449 5.83268 7.70032M18.3327 10.0003C18.3327 14.6027 14.6017 18.3337 9.99935 18.3337C5.39698 18.3337 1.66602 14.6027 1.66602 10.0003C1.66602 5.39795 5.39698 1.66699 9.99935 1.66699C14.6017 1.66699 18.3327 5.39795 18.3327 10.0003Z" stroke="#475467" stroke-width="1.66667" stroke-linecap="round" stroke-linejoin="round"/>
</svg>
