<svg width="14" height="20" viewBox="0 0 14 20" fill="none" xmlns="http://www.w3.org/2000/svg">
<path d="M6.99984 14.5832H7.00817M3.83317 18.3332H10.1665C11.0999 18.3332 11.5666 18.3332 11.9232 18.1515C12.2368 17.9917 12.4917 17.7368 12.6515 17.4232C12.8332 17.0666 12.8332 16.5999 12.8332 15.6665V4.33317C12.8332 3.39975 12.8332 2.93304 12.6515 2.57652C12.4917 2.26292 12.2368 2.00795 11.9232 1.84816C11.5666 1.6665 11.0999 1.6665 10.1665 1.6665H3.83317C2.89975 1.6665 2.43304 1.6665 2.07652 1.84816C1.76292 2.00795 1.50795 2.26292 1.34816 2.57652C1.1665 2.93304 1.1665 3.39975 1.1665 4.33317V15.6665C1.1665 16.5999 1.1665 17.0666 1.34816 17.4232C1.50795 17.7368 1.76292 17.9917 2.07652 18.1515C2.43304 18.3332 2.89975 18.3332 3.83317 18.3332ZM7.4165 14.5832C7.4165 14.8133 7.22996 14.9998 6.99984 14.9998C6.76972 14.9998 6.58317 14.8133 6.58317 14.5832C6.58317 14.3531 6.76972 14.1665 6.99984 14.1665C7.22996 14.1665 7.4165 14.3531 7.4165 14.5832Z" stroke="#667085" stroke-width="1.66667" stroke-linecap="round" stroke-linejoin="round"/>
</svg>
