<svg width="16" height="16" viewBox="0 0 16 16" fill="none" xmlns="http://www.w3.org/2000/svg">
<path d="M7.40217 0.877743C7.59424 0.488627 7.69028 0.294069 7.82065 0.231908C7.93408 0.177824 8.06587 0.177824 8.1793 0.231908C8.30967 0.294069 8.40571 0.488627 8.59778 0.877743L10.42 4.56938C10.4767 4.68426 10.5051 4.7417 10.5465 4.78629C10.5832 4.82578 10.6272 4.85777 10.6761 4.8805C10.7313 4.90617 10.7946 4.91543 10.9214 4.93396L14.9975 5.52973C15.4267 5.59247 15.6413 5.62384 15.7406 5.72868C15.827 5.81989 15.8677 5.94523 15.8512 6.06979C15.8323 6.21296 15.6769 6.3643 15.3662 6.66696L12.4178 9.53866C12.3259 9.62818 12.28 9.67294 12.2503 9.7262C12.2241 9.77335 12.2072 9.82516 12.2007 9.87873C12.1934 9.93925 12.2042 10.0025 12.2259 10.1289L12.9216 14.1851C12.995 14.6129 13.0317 14.8268 12.9627 14.9537C12.9027 15.0642 12.7961 15.1416 12.6725 15.1645C12.5305 15.1909 12.3384 15.0899 11.9542 14.8878L8.31027 12.9715C8.19674 12.9118 8.13997 12.8819 8.08016 12.8702C8.02721 12.8598 7.97274 12.8598 7.91979 12.8702C7.85998 12.8819 7.80321 12.9118 7.68967 12.9715L4.04573 14.8878C3.66156 15.0899 3.46947 15.1909 3.32744 15.1645C3.20386 15.1416 3.09723 15.0642 3.03724 14.9537C2.96829 14.8268 3.00498 14.6129 3.07835 14.1851L3.77403 10.1289C3.79572 10.0025 3.80656 9.93925 3.79923 9.87873C3.79273 9.82516 3.77589 9.77335 3.74963 9.7262C3.71998 9.67294 3.67402 9.62818 3.58211 9.53866L0.633759 6.66696C0.323012 6.3643 0.167638 6.21296 0.148731 6.06979C0.132281 5.94523 0.172921 5.81989 0.259335 5.72868C0.358655 5.62384 0.573269 5.59247 1.0025 5.52973L5.07855 4.93396C5.20531 4.91543 5.26869 4.90617 5.32389 4.8805C5.37276 4.85777 5.41676 4.82578 5.45345 4.78629C5.49488 4.7417 5.52323 4.68426 5.57994 4.56938L7.40217 0.877743Z" fill="#D0D5DD"/>
</svg>
