<svg width="20" height="20" viewBox="0 0 20 20" fill="none" xmlns="http://www.w3.org/2000/svg">
<g clip-path="url(#clip0_1240_288)">
<path d="M3.75008 18.3334V14.1667M3.75008 5.83341V1.66675M1.66675 3.75008H5.83341M1.66675 16.2501H5.83341M10.8334 2.50008L9.38827 6.25747C9.15326 6.86849 9.03575 7.174 8.85302 7.43099C8.69107 7.65875 8.49208 7.85774 8.26432 8.01969C8.00734 8.20242 7.70182 8.31992 7.0908 8.55493L3.33341 10.0001L7.0908 11.4452C7.70183 11.6802 8.00734 11.7977 8.26432 11.9805C8.49208 12.1424 8.69107 12.3414 8.85302 12.5692C9.03575 12.8262 9.15326 13.1317 9.38827 13.7427L10.8334 17.5001L12.2786 13.7427C12.5136 13.1317 12.6311 12.8262 12.8138 12.5692C12.9758 12.3414 13.1748 12.1424 13.4025 11.9805C13.6595 11.7977 13.965 11.6802 14.576 11.4452L18.3334 10.0001L14.576 8.55493C13.965 8.31992 13.6595 8.20242 13.4025 8.01969C13.1748 7.85774 12.9758 7.65875 12.8138 7.43099C12.6311 7.174 12.5136 6.86849 12.2786 6.25747L10.8334 2.50008Z" stroke="#98A2B3" stroke-width="1.66667" stroke-linecap="round" stroke-linejoin="round"/>
</g>
<defs>
<clipPath id="clip0_1240_288">
<rect width="20" height="20" fill="white"/>
</clipPath>
</defs>
</svg>
